<svg width="28" height="28" viewBox="0 0 28 28" fill="none" xmlns="http://www.w3.org/2000/svg">
<path d="M27.7649 26.5721L20.9604 19.7676C22.7857 17.6692 23.8908 14.9313 23.8908 11.9388C23.8908 5.35166 18.5329 0 11.952 0C5.36485 0 0.0131836 5.35787 0.0131836 11.9388C0.0131836 18.5197 5.37106 23.8776 11.952 23.8776C14.9445 23.8776 17.6824 22.7725 19.7808 20.9472L26.5853 27.7517C26.7467 27.9131 26.964 28 27.1751 28C27.3861 28 27.6034 27.9193 27.7649 27.7517C28.0877 27.4288 28.0877 26.8949 27.7649 26.5721ZM1.68325 11.9388C1.68325 6.27672 6.2899 1.67628 11.9458 1.67628C17.6079 1.67628 22.2083 6.28293 22.2083 11.9388C22.2083 17.5947 17.6079 22.2075 11.9458 22.2075C6.2899 22.2075 1.68325 17.6009 1.68325 11.9388Z" fill="#887569"/>
</svg>
